<svg width="108" height="100" viewBox="0 0 108 100" fill="none" xmlns="http://www.w3.org/2000/svg">
<path d="M0 70.5405C0 54.2705 13.1895 41.0811 29.4595 41.0811C45.7295 41.0811 58.9189 54.2705 58.9189 70.5405V100H29.4595C13.1895 100 0 86.8105 0 70.5405Z" fill="#FDB713"/>
<path d="M0 70.5405C0 54.2705 13.1895 41.0811 29.4595 41.0811C45.7295 41.0811 58.9189 54.2705 58.9189 70.5405V100H29.4595C13.1895 100 0 86.8105 0 70.5405Z" fill="#FDB713"/>
<path d="M107.207 56.8468C107.207 40.5768 94.0178 27.3874 77.7477 27.3874C61.4777 27.3874 48.2883 40.5768 48.2883 56.8468V86.3063H77.7477C94.0178 86.3063 107.207 73.1168 107.207 56.8468Z" fill="#C92F27"/>
<path d="M5.04505 29.4595C5.04505 13.1895 18.2345 0 34.5045 0C50.7745 0 63.964 13.1895 63.964 29.4595V58.9189H34.5045C18.2345 58.9189 5.04505 45.7295 5.04505 29.4595Z" fill="#FAED10"/>
</svg>
