<svg width="131" height="34" viewBox="0 0 131 34" fill="none" xmlns="http://www.w3.org/2000/svg">
<path d="M12.6562 4.84277L12.6563 29.3806C5.94249 29.3806 0.499907 23.938 0.499907 17.2242L0.499907 4.84277L12.6562 4.84277Z" fill="#DF463D"/>
<path d="M51.0391 17.2246L69.161 17.2246C72.5801 17.2246 75.3517 19.9963 75.3517 23.4153C75.3517 26.8344 72.5801 29.6061 69.161 29.6061L51.0391 29.6061V17.2246Z" fill="#FDB713"/>
<path d="M86.6074 4.84277H88.4647C95.2095 4.84277 100.677 10.3106 100.677 17.0554C100.677 23.8002 95.2095 29.268 88.4646 29.268H86.6074V4.84277Z" fill="#FDB713"/>
<path d="M86.6074 29.2686V4.84332H76.4771V29.2686H86.6074Z" fill="#FAED10"/>
<path d="M12.6562 4.84277L12.6563 29.3806C19.37 29.3806 24.8126 23.938 24.8126 17.2242V4.84277L12.6562 4.84277Z" fill="#C92F27"/>
<path d="M38.0938 29.3813V10.9217C38.0938 7.56484 35.3725 4.84355 32.0156 4.84355C28.6587 4.84355 25.9374 7.56484 25.9374 10.9217V29.3813L38.0938 29.3813Z" fill="#DF463D"/>
<path d="M50.252 29.3813V10.9217C50.252 7.56484 47.5307 4.84355 44.1738 4.84355C40.8169 4.84355 38.0956 7.56484 38.0956 10.9217V29.3813H50.252Z" fill="#C92F27"/>
<path d="M75.3516 4.84277L57.2296 4.84277C53.8106 4.84277 51.0389 7.61446 51.0389 11.0335C51.0389 14.4525 53.8106 17.2242 57.2296 17.2242L75.3516 17.2242V4.84277Z" fill="#FAED10"/>
<path d="M124.36 23.1358C122.733 25.9538 120.053 28.01 116.91 28.8522C113.767 29.6944 110.418 29.2535 107.6 27.6265C104.782 25.9996 102.726 23.3198 101.884 20.1768C101.042 17.0337 101.483 13.6849 103.11 10.8669L113.735 17.0013L124.36 23.1358Z" fill="#FAED10"/>
<path d="M103.118 10.8526C103.925 9.45825 104.999 8.23662 106.279 7.2574C107.558 6.27819 109.018 5.56057 110.575 5.14553C112.132 4.73048 113.755 4.62614 115.352 4.83844C116.949 5.05075 118.489 5.57556 119.883 6.3829L113.735 17.0004L103.118 10.8526Z" fill="#FDB713"/>
</svg>
